<?xml version="1.0" encoding="iso-8859-1"?>
<!-- downloaded from https://www.svgrepo.com/svg/25941/key under CC0 -->
<svg version="1.1" id="Layer_1" xmlns="http://www.w3.org/2000/svg" xmlns:xlink="http://www.w3.org/1999/xlink" x="0px" y="0px"
	 viewBox="0 0 512 512" style="enable-background:new 0 0 512 512;" xml:space="preserve">
<g>
	<g>
		<g>
			<path d="M336.389,99.463c-14.927,14.928-14.927,39.216,0,54.144c7.463,7.463,17.27,11.195,27.073,11.195
				c9.804,0,19.61-3.732,27.073-11.195c14.927-14.928,14.927-39.216,0-54.145C375.607,84.534,351.316,84.533,336.389,99.463z
				 M373.614,136.686c-5.597,5.599-14.708,5.599-20.305,0c-5.598-5.597-5.598-14.706,0-20.304c2.8-2.8,6.475-4.2,10.152-4.2
				s7.353,1.4,10.152,4.198C379.212,121.981,379.212,131.089,373.614,136.686z"/>
			<path d="M463.929,89.255l-65.289-65.29C383.186,8.51,362.638,0,340.783,0c-0.002,0,0,0-0.001,0
				c-21.856,0-42.403,8.512-57.857,23.965l-21.534,21.534c-15.455,15.455-23.965,36.002-23.965,57.858
				c0,21.653,8.355,42.023,23.539,57.427L37.821,383.927c-18.236,18.236-18.236,47.911,0,66.147
				c18.177,18.176,47.718,18.234,65.97,0.175l58.244,58.247c2.245,2.243,5.287,3.504,8.46,3.504s6.217-1.261,8.46-3.504
				l35.551-35.553c4.672-4.672,4.672-12.248,0-16.921l-27.639-27.639l18.631-18.63l11.23,11.23c4.673,4.67,12.247,4.672,16.921,0
				l35.551-35.55c2.243-2.243,3.504-5.287,3.504-8.46c0-3.173-1.261-6.216-3.504-8.46l-41.836-41.836l99.745-99.745
				c31.936,31.477,83.526,31.334,115.285-0.426l21.534-21.534C495.831,173.067,495.831,121.159,463.929,89.255z M447.009,188.05
				l-21.534,21.534c-22.572,22.575-59.302,22.572-81.876,0l-8.033-8.032c-4.671-4.673-12.246-4.671-16.92,0L201.984,318.214
				c-4.672,4.672-4.672,12.248,0,16.921l41.836,41.836l-18.631,18.631l-40.88-40.882c-4.673-4.671-12.247-4.671-16.921,0
				c-4.672,4.672-4.672,12.248,0,16.921l21.19,21.19l-18.551,18.551l-21.19-21.19c-4.673-4.671-12.247-4.671-16.921,0
				c-4.672,4.672-4.672,12.248,0,16.921l57.21,57.369l-18.63,18.63l-58.243-58.246c-2.245-2.243-5.287-3.504-8.46-3.504
				c-3.173,0-6.216,1.261-8.46,3.504l-8.284,8.284c-8.905,8.908-23.399,8.908-32.304,0c-8.906-8.906-8.906-23.399,0-32.305
				l231.601-231.601c4.672-4.672,4.672-12.248,0-16.921l-8.032-8.032c-10.936-10.934-16.957-25.472-16.957-40.938
				c0-15.464,6.022-30.002,16.957-40.937l21.534-21.534c10.933-10.934,25.472-16.956,40.937-16.956
				c15.465,0,30.003,6.022,40.938,16.957l65.289,65.289C469.582,128.748,469.582,165.478,447.009,188.05z"/>
		</g>
	</g>
</g>
<g>
</g>
<g>
</g>
<g>
</g>
<g>
</g>
<g>
</g>
<g>
</g>
<g>
</g>
<g>
</g>
<g>
</g>
<g>
</g>
<g>
</g>
<g>
</g>
<g>
</g>
<g>
</g>
<g>
</g>
</svg>
